
<svg width="23px" height="23px" viewBox="0 0 23 23" version="1.1" xmlns="http://www.w3.org/2000/svg" xmlns:xlink="http://www.w3.org/1999/xlink">
    <g id="WildAid" stroke="none" stroke-width="1" fill="none" fill-rule="evenodd">
        <g id="WildAid-Deskto-Added-VIdeo" transform="translate(-581.000000, -11122.000000)" fill="#E17000">
            <g id="Foto-Spiegel-23" transform="translate(-230.839861, 6476.000000)">
                <g id="Media/Partners" transform="translate(164.839861, 2949.395863)">
                    <g id="Footer" transform="translate(210.000000, 1516.689330)">
                        <g id="Social" transform="translate(437.500000, 180.000000)">
                            <path d="M11.3195388,0.551020408 C8.32657962,0.551020408 7.95096738,0.564107143 6.77545717,0.617602041 C5.60224289,0.671326531 4.80142656,0.857066327 4.10071228,1.12959184 C3.37589085,1.41107143 2.76104391,1.78760204 2.14849289,2.40038265 C1.53548268,3.01293367 1.15895207,3.62778061 0.876554113,4.35237245 C0.603339827,5.05331633 0.41737044,5.85436224 0.364564317,7.02711735 C0.311987787,8.20262755 0.298212276,8.57846939 0.298212276,11.5714286 C0.298212276,14.5643878 0.311528603,14.938852 0.364793909,16.1143622 C0.418747991,17.2875765 0.604487787,18.0883929 0.876783705,18.7891071 C1.15849289,19.5139286 1.5350235,20.1287755 2.14780411,20.7413265 C2.76012554,21.3543367 3.37497248,21.7317857 4.09933473,22.0132653 C4.80050819,22.2857908 5.60155411,22.4715306 6.77453881,22.5252551 C7.95004901,22.57875 8.32543166,22.5918367 11.3181613,22.5918367 C14.31135,22.5918367 14.6858143,22.57875 15.8613245,22.5252551 C17.0345388,22.4715306 17.8362735,22.2857908 18.537447,22.0132653 C19.2620388,21.7317857 19.8759674,21.3543367 20.4882888,20.7413265 C21.101299,20.1287755 21.4778296,19.5139286 21.7602276,18.7893367 C22.0311459,18.0883929 22.2171153,17.2873469 22.2722174,16.1145918 C22.3250235,14.9390816 22.338799,14.5643878 22.338799,11.5714286 C22.338799,8.57846939 22.3250235,8.20285714 22.2722174,7.02734694 C22.2171153,5.85413265 22.0311459,5.05331633 21.7602276,4.35260204 C21.4778296,3.62778061 21.101299,3.01293367 20.4882888,2.40038265 C19.8752786,1.78737245 19.2622684,1.41084184 18.5367582,1.12959184 C17.8342072,0.857066327 17.0329317,0.671326531 15.8597174,0.617602041 C14.6842072,0.564107143 14.3099725,0.551020408 11.3160949,0.551020408 L11.3195388,0.551020408 Z M10.3309164,2.5369898 C10.6243347,2.53653061 10.9517327,2.5369898 11.3195388,2.5369898 C14.2619878,2.5369898 14.6107378,2.54755102 15.7727021,2.60035714 C16.8471919,2.6494898 17.4303551,2.82903061 17.8188245,2.97987245 C18.3331102,3.17961735 18.6997684,3.41839286 19.0852531,3.80410714 C19.4709674,4.18982143 19.7097429,4.55716837 19.909947,5.07145408 C20.0607888,5.45946429 20.2405592,6.04262755 20.2894623,7.11711735 C20.3422684,8.27885204 20.353748,8.62783163 20.353748,11.5689031 C20.353748,14.5099745 20.3422684,14.8589541 20.2894623,16.0206888 C20.2403296,17.0951786 20.0607888,17.6783418 19.909947,18.066352 C19.7102021,18.5806378 19.4709674,18.9468367 19.0852531,19.3323214 C18.6995388,19.7180357 18.3333398,19.9568112 17.8188245,20.1565561 C17.4308143,20.3080867 16.8471919,20.4871684 15.7727021,20.536301 C14.6109674,20.5891071 14.2619878,20.6005867 11.3195388,20.6005867 C8.37686024,20.6005867 8.02811024,20.5891071 6.86637554,20.536301 C5.79188575,20.4867092 5.20872248,20.3071684 4.8200235,20.1563265 C4.30573779,19.9565816 3.93839085,19.7178061 3.55267656,19.3320918 C3.16696228,18.9463776 2.92818677,18.579949 2.72798268,18.0654337 C2.57714085,17.6774235 2.39737044,17.0942602 2.34846738,16.0197704 C2.29566126,14.8580357 2.28510003,14.5090561 2.28510003,11.566148 C2.28510003,8.6232398 2.29566126,8.27609694 2.34846738,7.11436224 C2.39760003,6.03987245 2.57714085,5.45670918 2.72798268,5.0682398 C2.92772758,4.55395408 3.16696228,4.18660714 3.55267656,3.80089286 C3.93839085,3.41517857 4.30573779,3.17640306 4.8200235,2.97619898 C5.20849289,2.82466837 5.79188575,2.64558673 6.86637554,2.59622449 C7.88300819,2.55030612 8.27698779,2.53653061 10.3309164,2.53423469 L10.3309164,2.5369898 Z M17.2021408,4.36683673 C16.4720388,4.36683673 15.8796919,4.9584949 15.8796919,5.68882653 C15.8796919,6.41892857 16.4720388,7.01127551 17.2021408,7.01127551 C17.9322429,7.01127551 18.5245898,6.41892857 18.5245898,5.68882653 C18.5245898,4.95872449 17.9322429,4.36637755 17.2021408,4.36637755 L17.2021408,4.36683673 Z M11.3195388,5.9119898 C8.19410513,5.9119898 5.66010003,8.4459949 5.66010003,11.5714286 C5.66010003,14.6968622 8.19410513,17.2297194 11.3195388,17.2297194 C14.4449725,17.2297194 16.9780592,14.6968622 16.9780592,11.5714286 C16.9780592,8.4459949 14.4447429,5.9119898 11.3193092,5.9119898 L11.3195388,5.9119898 Z M11.3195388,7.89795918 C13.3482123,7.89795918 14.9930082,9.54252551 14.9930082,11.5714286 C14.9930082,13.600102 13.3482123,15.244898 11.3195388,15.244898 C9.29063575,15.244898 7.64606942,13.600102 7.64606942,11.5714286 C7.64606942,9.54252551 9.29063575,7.89795918 11.3195388,7.89795918 Z" id="Shape"></path>
                        </g>
                    </g>
                </g>
            </g>
        </g>
    </g>
</svg>
