<svg width="125px" height="36px" viewBox="0 0 125 36" version="1.1" xmlns="http://www.w3.org/2000/svg" xmlns:xlink="http://www.w3.org/1999/xlink">
    <g id="WildAid" stroke="none" stroke-width="1" fill="none" fill-rule="evenodd">
        <g id="WildAid-Deskto-Added-VIdeo" transform="translate(-144.000000, -10952.000000)" fill="#FFEDD9">
            <g id="Foto-Spiegel-23" transform="translate(-230.839861, 6476.000000)">
                <g id="Media/Partners" transform="translate(164.839861, 2949.395863)">
                    <g id="Footer" transform="translate(210.000000, 1516.689330)">
                        <g id="Logo/Gray" transform="translate(0.000000, 9.498054)">
                            <g id="RS429_wildaid_en_1c_positive_rgb" transform="translate(0.142453, 0.522667)">
                                <polyline id="Fill-1" points="0.0795454545 0.000991071429 7.47632576 0.000991071429 10.6401515 21.33975 14.8267045 0.000991071429 20.1505682 0.000991071429 24.4024621 21.7272589 27.5861742 0.000991071429 34.7339015 0.000991071429 28.063447 35.6835268 21.9375 35.6835268 17.4829545 15.0077946 12.9630682 35.6835268 6.91950758 35.6835268 0.0795454545 0.000991071429"></polyline>
                                <polyline id="Fill-2" points="36.594697 35.6835268 36.594697 0.000991071429 43.3948864 0.000991071429 43.3958333 35.6835268 36.594697 35.6835268"></polyline>
                                <polyline id="Fill-3" points="46.7348485 35.6835268 46.7348485 0.000991071429 53.5340909 0.000991071429 53.5340909 29.2693125 61.3607955 29.2693125 61.3607955 35.6835268 46.7348485 35.6835268"></polyline>
                                <path d="M76.0179924,17.7917143 C76.0179924,16.78875 76.0104167,15.7956964 75.9924242,14.8085893 C75.9782197,13.8254464 75.9441288,12.8997857 75.8958333,12.0286339 C75.8532197,11.1594643 75.7708333,10.3656161 75.6600379,9.64907143 C75.5445076,8.92955357 75.3967803,8.37158036 75.2045455,7.96920536 C74.9791667,7.50042857 74.6619318,7.12679464 74.2471591,6.84235714 C73.8323864,6.55791964 73.3068182,6.4171875 72.6666667,6.4171875 L69.9848485,6.4171875 L69.9867424,29.2693125 L72.6666667,29.2693125 C73.3068182,29.2693125 73.8323864,29.1265982 74.2471591,28.8421607 C74.6619318,28.5587143 74.9810606,28.1830982 75.2045455,27.7143214 C75.3967803,27.3129375 75.5464015,26.7549643 75.6600379,26.0344554 C75.7708333,25.3189018 75.8532197,24.5151429 75.8977273,23.6301161 C75.9460227,22.7440982 75.9782197,21.8005982 75.9943182,20.7976339 C76.0104167,19.7976429 76.0179924,18.7956696 76.0179924,17.7917143 Z M82.8181818,17.7917143 C82.8181818,19.4289643 82.7973485,20.9661161 82.749053,22.4011875 C82.7007576,23.8392321 82.5965909,25.1672679 82.436553,26.3872768 C82.2746212,27.6053036 82.030303,28.7093571 81.6941288,29.6954732 C81.3570076,30.6786161 80.8873106,31.5230089 80.2793561,32.2236964 C79.5132576,33.1602589 78.5539773,33.9709554 77.4081439,34.6567768 C76.2604167,35.3416071 74.7263258,35.6835268 72.8125,35.6835268 L63.1856061,35.6835268 L63.1856061,0.000991071429 L72.8125,0.000991071429 C74.7263258,0.000991071429 76.2604167,0.345883929 77.40625,1.02774107 C78.5520833,1.71257143 79.5113636,2.52326786 80.2793561,3.45983036 C80.8873106,4.16150893 81.3570076,4.99797321 81.6941288,5.96525893 C82.030303,6.93353571 82.2746212,8.01975 82.436553,9.22390179 C82.5965909,10.4240893 82.7007576,11.7461786 82.749053,13.1822411 C82.7973485,14.6183036 82.8181818,16.1554554 82.8181818,17.7917143 L82.8181818,17.7917143 Z" id="Fill-4"></path>
                                <path d="M92.1950758,5.31115179 L88.7982955,23.2525179 L95.6467803,23.2525179 L92.1950758,5.31115179 Z M98.0397727,35.6835268 L96.1714015,25.9105714 L88.2206439,25.9105714 L86.4015152,35.6835268 L83.3409091,35.6835268 L90.9535985,0.000991071429 L93.5833333,0.000991071429 L101.056818,35.6835268 L98.0397727,35.6835268 L98.0397727,35.6835268 Z" id="Fill-5"></path>
                                <polyline id="Fill-6" points="103.170455 35.6835268 103.168561 0.000991071429 105.996212 0.000991071429 105.996212 35.6835268 103.170455 35.6835268"></polyline>
                                <path d="M121.534091,17.8422589 C121.534091,15.304125 121.517045,13.2248571 121.486742,11.6024732 C121.455492,9.98207143 121.374053,8.66989286 121.247159,7.66891071 C121.117424,6.6669375 120.951705,5.88795536 120.746212,5.33791071 C120.535985,4.78786607 120.244318,4.31314286 119.857955,3.90977679 C119.15625,3.07529464 118.116477,2.6570625 116.746212,2.6570625 L112.724432,2.6570625 L112.724432,33.0264643 L116.746212,33.0264643 C118.116477,33.0264643 119.15625,32.6102143 119.857955,31.7747411 C120.244318,31.371375 120.535985,30.8956607 120.746212,30.344625 C120.951705,29.7955714 121.117424,29.0165893 121.247159,28.0156071 C121.374053,27.0136339 121.455492,25.7014554 121.486742,24.0820446 C121.517045,22.463625 121.534091,20.3813839 121.534091,17.8422589 Z M124.358902,17.8422589 C124.358902,20.6162679 124.326705,22.8957321 124.263258,24.6826339 C124.199811,26.4715179 124.089015,27.9313661 123.928977,29.068125 C123.767045,30.2029018 123.53125,31.1047768 123.208333,31.7747411 C122.891098,32.4387589 122.477273,33.0581786 121.965909,33.6290357 C121.390152,34.2633214 120.679924,34.7648036 119.836174,35.1324911 C118.99053,35.4991875 118.005682,35.6835268 116.890152,35.6835268 L109.902462,35.6835268 L109.902462,0.000991071429 L116.890152,0.000991071429 C118.005682,0.000991071429 118.99053,0.186321429 119.836174,0.551035714 C120.679924,0.918723214 121.390152,1.4221875 121.965909,2.05449107 C122.477273,2.62336607 122.891098,3.24278571 123.208333,3.90977679 C123.53125,4.57974107 123.767045,5.48161607 123.928977,6.61540179 C124.089015,7.75216071 124.199811,9.21498214 124.263258,11.0008929 C124.326705,12.7897768 124.358902,15.06825 124.358902,17.8422589 L124.358902,17.8422589 Z" id="Fill-7"></path>
                            </g>
                        </g>
                    </g>
                </g>
            </g>
        </g>
    </g>
</svg>
