<svg width="24px" height="21px" viewBox="0 0 24 21" version="1.1" xmlns="http://www.w3.org/2000/svg" xmlns:xlink="http://www.w3.org/1999/xlink">
    <g id="WildAid" stroke="none" stroke-width="1" fill="none" fill-rule="evenodd">
        <g id="WildAid-Deskto-Added-VIdeo" transform="translate(-698.000000, -11123.000000)" fill="#E17000">
            <g id="Foto-Spiegel-23" transform="translate(-230.839861, 6476.000000)">
                <g id="Media/Partners" transform="translate(164.839861, 2949.395863)">
                    <g id="Footer" transform="translate(210.000000, 1516.689330)">
                        <g id="Social" transform="translate(437.500000, 180.000000)">
                            <path d="M139.826721,2.01978436 C138.908496,2.59306733 137.893876,3.0100004 136.809431,3.23308501 C135.945582,2.2606649 134.710984,1.65306122 133.34415,1.65306122 C130.724181,1.65306122 128.597928,3.8953476 128.597928,6.66070701 C128.597928,7.05348847 128.63871,7.43419412 128.720275,7.80091726 C124.774255,7.59181516 121.276225,5.60057842 118.933083,2.56700902 C118.524022,3.30935326 118.290449,4.17054884 118.290449,5.08767448 C118.290449,6.82404817 119.128345,8.35703987 120.403108,9.25509844 C119.625768,9.23094683 118.8923,9.00341324 118.250902,8.63096998 L118.250902,8.69198458 C118.250902,11.1192214 119.887765,13.1441433 122.061598,13.6023884 C121.663659,13.7199686 121.243476,13.7790765 120.810316,13.7790765 C120.504447,13.7790765 120.205992,13.7485692 119.916807,13.6900968 C120.52113,15.6787913 122.273544,17.1272524 124.3516,17.1660221 C122.727095,18.5096143 120.678699,19.3104308 118.454815,19.3104308 C118.071706,19.3104308 117.692923,19.2875504 117.322172,19.2417894 C119.423091,20.6603788 121.920095,21.4897959 124.60062,21.4897959 C133.334882,21.4897959 138.109529,13.8604292 138.109529,7.24225237 C138.109529,7.02425231 138.105821,6.80688781 138.097788,6.59333673 C139.025282,5.8872199 139.831046,5.00568612 140.46503,4.00148757 C139.614775,4.39935358 138.699022,4.66883471 137.738778,4.78959276 C138.719413,4.17054884 139.472036,3.18923077 139.826721,2.01978436" id="Twitter"></path>
                        </g>
                    </g>
                </g>
            </g>
        </g>
    </g>
</svg>
