<svg width="23px" height="28px" viewBox="0 0 23 28" version="1.1" xmlns="http://www.w3.org/2000/svg" xmlns:xlink="http://www.w3.org/1999/xlink">
    <defs>
        <polygon id="path-1" points="0.153934729 0.135123529 17.4870921 0.135123529 17.4870921 14.1591696 0.153934729 14.1591696"></polygon>
        <polygon id="path-3" points="0.118723761 0.272370934 5.70839792 0.272370934 5.70839792 12.1089913 0.118723761 12.1089913"></polygon>
        <polygon id="path-5" points="0.0207238754 0.033467128 5.05977924 0.033467128 5.05977924 13.4296183 0.0207238754 13.4296183"></polygon>
        <polygon id="path-7" points="0.00492352941 0.033467128 5.04397889 0.033467128 5.04397889 13.4296183 0.00492352941 13.4296183"></polygon>
    </defs>
    <g id="WildAid" stroke="none" stroke-width="1" fill="none" fill-rule="evenodd">
        <g id="WildAid-Deskto-Added-VIdeo" transform="translate(-146.000000, -1823.000000)">
            <g id="Map-Section" transform="translate(-13.000000, 1023.000000)">
                <g id="Group-18-Copy-11" transform="translate(159.375000, 799.906519)">
                    <polygon id="Fill-1" fill="#FFEDD9" points="17.4926886 14.10131 17.4981592 14.10131 17.4981592 14.096483 17.4926886 14.096483"></polygon>
                    <polygon id="Fill-2" fill="#FFEDD9" points="17.4926886 14.10131 17.4981592 14.10131 17.4981592 14.096483 17.4926886 14.096483"></polygon>
                    <g id="Group-17" transform="translate(0.000000, 0.288397)">
                        <g id="Group-5" transform="translate(2.252595, 12.871972)">
                            <mask id="mask-2" fill="white">
                                <use xlink:href="#path-1"></use>
                            </mask>
                            <g id="Clip-4"></g>
                            <path d="M8.82872491,0.135123529 C5.61234083,0.135123529 5.49198789,3.94265294 4.28491869,5.3576045 C2.77053114,7.13329308 -0.572320069,6.99331038 0.295572664,11.469217 C1.67898789,16.1353069 5.64291176,13.3137706 8.82872491,13.3137706 L8.81231315,13.3137706 C11.9981263,13.3137706 15.9620502,16.1353069 17.3454654,11.469217 C18.2133581,6.99331038 14.8701851,7.13329308 13.3557976,5.3576045 C12.1490502,3.94265294 12.0283754,0.135123529 8.81231315,0.135123529" id="Fill-3" fill="#FFEDD9" mask="url(#mask-2)"></path>
                        </g>
                        <g id="Group-8" transform="translate(16.411765, 5.148789)">
                            <mask id="mask-4" fill="white">
                                <use xlink:href="#path-3"></use>
                            </mask>
                            <g id="Clip-7"></g>
                            <path d="M5.36468408,3.45367889 C5.39815121,3.10967543 5.50402318,1.23712526 5.18222388,0.272370934 L5.18222388,0.452256747 C4.98077751,1.45948858 4.72430346,2.43679308 4.46525502,2.70034671 C3.25464602,2.44355087 1.60767716,4.11690727 0.703421107,6.57545398 C-0.241381661,9.14309066 -0.0174093426,11.5881218 1.20349723,12.0376754 C2.42472561,12.4865855 4.18014083,10.7694644 5.1249436,8.20247128 C5.82646609,6.29581038 5.88181557,4.45833633 5.36468408,3.45367889" id="Fill-6" fill="#FFEDD9" mask="url(#mask-4)"></path>
                        </g>
                        <g id="Group-11" transform="translate(11.584775, 0.000000)">
                            <mask id="mask-6" fill="white">
                                <use xlink:href="#path-5"></use>
                            </mask>
                            <g id="Clip-10"></g>
                            <path d="M3.01120484,2.64258374 C3.16759931,2.34363218 2.91820484,0.773573356 2.67588997,0.0334349481 L2.65304221,0.0334349481 C2.41684152,0.754908997 2.16873426,2.21684325 2.30099377,2.5679263 C1.02184152,2.82826194 0.0207238754,5.15358374 0.0207238754,7.98573945 C0.0207238754,10.9923104 1.14895225,13.4296183 2.54041246,13.4296183 C3.93187266,13.4296183 5.05977924,10.9923104 5.05977924,7.98573945 C5.05977924,5.32735536 4.17740554,3.11949031 3.01120484,2.64258374" id="Fill-9" fill="#FFEDD9" mask="url(#mask-6)"></path>
                        </g>
                        <path d="M0.343778201,8.60246782 C0.310311073,8.25846436 0.2047609,6.38591419 0.526238408,5.42115986 L0.526238408,5.60104567 C0.727684775,6.60827751 0.984480623,7.58558201 1.24320727,7.84913564 C2.45381626,7.59233979 4.10078512,9.26569619 5.00536298,11.7242429 C5.94984394,14.2918796 5.72587163,16.7369107 4.50496505,17.1864644 C3.28373668,17.6353744 1.52832145,15.9182533 0.583840484,13.3512602 C-0.117682007,11.4445993 -0.173353287,9.60712526 0.343778201,8.60246782" id="Fill-12" fill="#FFEDD9"></path>
                        <g id="Group-16" transform="translate(5.470588, 0.000000)">
                            <mask id="mask-8" fill="white">
                                <use xlink:href="#path-7"></use>
                            </mask>
                            <g id="Clip-15"></g>
                            <path d="M2.05381972,2.64258374 C1.89710346,2.34363218 2.14681972,0.773895156 2.3891346,0.0334349481 L2.41198235,0.0334349481 C2.64786125,0.754908997 2.89629031,2.21684325 2.7640308,2.5679263 C4.04318304,2.82826194 5.04397889,5.15358374 5.04397889,7.98573945 C5.04397889,10.9923104 3.91607232,13.4296183 2.52461211,13.4296183 C1.1331519,13.4296183 0.00492352941,10.9923104 0.00492352941,7.98573945 C0.00492352941,5.32735536 0.887619031,3.11949031 2.05381972,2.64258374" id="Fill-14" fill="#FFEDD9" mask="url(#mask-8)"></path>
                        </g>
                    </g>
                </g>
            </g>
        </g>
    </g>
</svg>
