<svg width="63px" height="77px" viewBox="0 0 63 77" version="1.1" xmlns="http://www.w3.org/2000/svg" xmlns:xlink="http://www.w3.org/1999/xlink">
    <defs>
        <polygon id="path-1" points="0.42956261 0.377069012 48.7986109 0.377069012 48.7986109 39.5118755 0.42956261 39.5118755"></polygon>
        <polygon id="path-3" points="0.331304631 0.760064804 15.9295718 0.760064804 15.9295718 33.7907499 0.331304631 33.7907499"></polygon>
        <polygon id="path-5" points="0.0578310177 0.0933917056 14.1195687 0.0933917056 14.1195687 37.4760261 0.0578310177 37.4760261"></polygon>
        <polygon id="path-7" points="0.0137393567 0.0933917056 14.075477 0.0933917056 14.075477 37.4760261 0.0137393567 37.4760261"></polygon>
    </defs>
    <g id="WildAid" stroke="none" stroke-width="1" fill="none" fill-rule="evenodd">
        <g id="WildAid-Deskto-Added-VIdeo" transform="translate(-657.000000, -1452.000000)">
            <g id="Map-Section" transform="translate(-13.000000, 1023.000000)">
                <g id="Group" transform="translate(226.000000, 158.000000)">
                    <g id="Group-18-Copy-9" transform="translate(52.853903, 165.644351)">
                        <g id="Group-18-Copy-10" transform="translate(390.246862, 105.282427)">
                            <g id="Group-18-Copy-17" transform="translate(1.403766, 0.000000)">
                                <polygon id="Fill-1" fill="#000000" points="48.8142281 39.3504156 48.8294941 39.3504156 48.8294941 39.3369456 48.8142281 39.3369456"></polygon>
                                <polygon id="Fill-2" fill="#000000" points="48.8142281 39.3504156 48.8294941 39.3504156 48.8294941 39.3369456 48.8142281 39.3369456"></polygon>
                                <g id="Group-17" transform="translate(0.000000, 0.804785)">
                                    <g id="Group-5" transform="translate(6.285980, 35.919887)">
                                        <mask id="mask-2" fill="white">
                                            <use xlink:href="#path-1"></use>
                                        </mask>
                                        <g id="Clip-4"></g>
                                        <path d="M24.6370013,0.377069012 C15.6615196,0.377069012 15.3256687,11.0021715 11.9572813,14.9506651 C7.73130663,19.9058135 -1.59708797,19.5151847 0.8248104,32.0054273 C4.68530023,45.0263863 15.7468294,37.1527471 24.6370013,37.1527471 L24.5912035,37.1527471 C33.4813755,37.1527471 44.5429046,45.0263863 48.4033944,32.0054273 C50.8252928,19.5151847 41.4960002,19.9058135 37.2700255,14.9506651 C33.9025361,11.0021715 33.5657872,0.377069012 24.5912035,0.377069012" id="Fill-3" fill="#000000" mask="url(#mask-2)"></path>
                                    </g>
                                    <g id="Group-8" transform="translate(45.797856, 14.367955)">
                                        <mask id="mask-4" fill="white">
                                            <use xlink:href="#path-3"></use>
                                        </mask>
                                        <g id="Clip-7"></g>
                                        <path d="M14.970421,9.63766482 C15.0638127,8.67770585 15.3592538,3.45226032 14.4612566,0.760064804 L14.4612566,1.26204522 C13.8991104,4.07277636 13.1834066,6.79999377 12.4605189,7.53545345 C9.08225357,6.81885171 4.48630406,11.488437 1.96293201,18.3491354 C-0.673587677,25.5142548 -0.0485816469,32.3372373 3.35841961,33.5917393 C6.76631887,34.8444454 11.6648934,30.0527325 14.3014131,22.8894091 C16.259047,17.5687758 16.4135025,12.441212 14.970421,9.63766482" id="Fill-6" fill="#000000" mask="url(#mask-4)"></path>
                                    </g>
                                    <g id="Group-11" transform="translate(32.327898, 0.000000)">
                                        <mask id="mask-6" fill="white">
                                            <use xlink:href="#path-5"></use>
                                        </mask>
                                        <g id="Clip-10"></g>
                                        <path d="M8.40291871,7.37426296 C8.83934534,6.54002359 8.14339753,2.1586954 7.46720566,0.0933019059 L7.40344786,0.0933019059 C6.74431794,2.10661156 6.05196212,6.1862127 6.42103896,7.16592761 C2.85150021,7.89240732 0.0578310177,14.3813349 0.0578310177,22.284608 C0.0578310177,30.6745955 3.20620909,37.4760261 7.08914886,37.4760261 C10.9720886,37.4760261 14.1195687,30.6745955 14.1195687,22.284608 C14.1195687,14.8662533 11.6572605,8.70509476 8.40291871,7.37426296" id="Fill-9" fill="#000000" mask="url(#mask-6)"></path>
                                    </g>
                                    <path d="M0.959330376,24.0056195 C0.865938671,23.0456606 0.571395599,17.820215 1.46849477,15.1280195 L1.46849477,15.6299999 C2.030641,18.4407311 2.74724274,21.1679485 3.46923247,21.9034082 C6.84749782,21.1868064 11.4434473,25.8563917 13.9677174,32.7170901 C16.6033391,39.8822095 15.978333,46.705192 12.5713318,47.959694 C9.16343252,49.2124001 4.26485796,44.4206872 1.62923626,37.2573638 C-0.328397565,31.9367305 -0.483751075,26.8091667 0.959330376,24.0056195" id="Fill-12" fill="#000000"></path>
                                    <g id="Group-16" transform="translate(15.265952, 0.000000)">
                                        <mask id="mask-8" fill="white">
                                            <use xlink:href="#path-7"></use>
                                        </mask>
                                        <g id="Clip-15"></g>
                                        <path d="M5.73128734,7.37426296 C5.29396271,6.54002359 5.99080852,2.15959339 6.66700039,0.0933019059 L6.73075819,0.0933019059 C7.38899011,2.10661156 8.08224393,6.1862127 7.71316709,7.16592761 C11.2827058,7.89240732 14.075477,14.3813349 14.075477,22.284608 C14.075477,30.6745955 10.927997,37.4760261 7.04505719,37.4760261 C3.16211743,37.4760261 0.0137393567,30.6745955 0.0137393567,22.284608 C0.0137393567,14.8662533 2.47694559,8.70509476 5.73128734,7.37426296" id="Fill-14" fill="#000000" mask="url(#mask-8)"></path>
                                    </g>
                                </g>
                            </g>
                        </g>
                    </g>
                </g>
            </g>
        </g>
    </g>
</svg>
